<svg width="26" height="17" viewBox="0 0 26 17" fill="none" xmlns="http://www.w3.org/2000/svg">
<path fill-rule="evenodd" clip-rule="evenodd" d="M0.0409048 0.039067C-0.0203996 0.0987501 -0.010085 5.33331 0.0537494 6.56903C0.166822 8.75697 0.727191 10.4467 1.90728 12.1584C2.94777 13.6676 4.12865 14.7308 5.76739 15.6339C7.46763 16.5707 9.24429 16.9862 11.561 16.9886L12.7162 16.9899L12.6938 13.2163C12.6722 9.58793 12.6657 9.41639 12.5249 8.76064C12.4444 8.38548 12.2925 7.82244 12.1874 7.5095C10.8479 3.51888 7.30422 0.64392 3.04417 0.0916771C2.37002 0.00426815 0.11713 -0.0352053 0.0409048 0.039067ZM20.7033 9.12669C18.3995 9.5333 16.517 10.8998 15.4793 12.9189C14.986 13.8787 14.7866 14.7153 14.7372 16.0318L14.7008 17L17.3214 16.975C19.9042 16.9504 19.9511 16.9476 20.5717 16.7848C23.242 16.0842 25.2845 14.0028 25.806 11.4507C25.9428 10.7808 26.0479 9.38159 25.9775 9.16566C25.9342 9.03278 25.9223 9.03215 23.5543 9.03783C21.8913 9.04181 21.0326 9.06859 20.7033 9.12669Z" fill="#1AAA55"/>
</svg>
